<svg id="Layer_1" data-name="Layer 1" xmlns="http://www.w3.org/2000/svg" viewBox="0 0 400 400"><defs><style>.cls-1{fill:#636363}</style></defs><path class="cls-1" d="M292.94 286.61c-5 0-9.93-.11-14.66-.34a21 21 0 01-11.93-5.15 100.41 100.41 0 01-9-9c-1-1.06-1.93-2.13-2.92-3.17l-1.2-1.28c-7.55-8-14.68-15.63-23.63-21a19.46 19.46 0 00-7.14-2.48h-.45c0 .19 0 .41-.05.68-.22 6-.23 12.18-.23 18.15v4.89c0 12.91-4.21 17.38-17.14 18.4-19.82 1.57-38.73-3.85-57.73-16.59-13.75-9.21-25.73-21.82-37.68-39.68-17.29-25.82-28-47.14-34.78-69.11A67.17 67.17 0 0171.73 148c-.51-4.94 1.18-8 2.68-9.74a11.51 11.51 0 018.67-3.78c11.58-.37 22-.35 31.83 0 8.73.35 11.83 8.17 13.32 11.93l2.51 6.41c2.47 6.34 5 12.89 7.83 19.12 6.48 14.42 13.14 25.57 20.95 35.09a29.39 29.39 0 006 5.79l.29.18c.08-.29.15-.61.24-1a16.36 16.36 0 00.1-3.53v-2.05-10.2c0-7.24-.06-14.48.07-21.72.16-8.58-1.95-15-6.64-20.19-5.1-5.64-3.8-10.81-2.56-13.39 1.49-3.13 4.76-6.85 11.88-6.85h11.7c9.23 0 18.45 0 27.67.09 8.69.1 13.07 4.46 13.37 13.33.13 3.87.12 7.75.11 11.63V201.94a8.51 8.51 0 001.89-1.1c8.53-6.84 14.61-15.84 21.13-27.24 5.65-9.91 10.59-20.09 14.26-27.85 3.76-7.94 9.49-11.62 17.48-11.67 3.62.05 7.25 0 10.88 0 5.22 0 10.43 0 15.64.11 6.61.16 9.8 3 11.3 5.37 1.18 1.84 2.78 5.8.27 11.58a274.53 274.53 0 01-14.81 29.5c-4.51 7.71-9.56 15.16-14.45 22.36q-2.65 3.88-5.26 7.79c-3 4.5-3 4.5.81 8.75 6.76 7.52 36.35 42.42 38.48 47.74 2.56 6.43 1.17 10.77-.46 13.27s-4.91 5.47-11.6 5.75c-4.84.21-9.66.31-14.37.31zm-71.29-53.79a17.8 17.8 0 012.35.18 30.75 30.75 0 0111.42 4c10.29 6.18 18.3 14.7 26 23l1.2 1.27c1 1.09 2 2.2 3 3.31a90.43 90.43 0 007.94 8.05 10.28 10.28 0 005.16 2.47c8.84.42 18.29.44 28.08 0 2.06-.09 2.62-.63 2.63-.63a5.16 5.16 0 00-.56-3c-1.86-3.45-24.72-31.4-36.39-44.39-7.41-8.24-7.83-13.5-1.82-22.52q2.64-4 5.32-7.88c4.79-7.05 9.74-14.34 14.05-21.71a263.52 263.52 0 0014.2-28.31 5.48 5.48 0 00.33-1 7.27 7.27 0 00-1.84-.24c-5.11-.13-10.23-.12-15.34-.11h-11c-3-.1-5.07.78-7.17 5.22-3.75 7.94-8.82 18.37-14.66 28.62-6.19 10.83-13.36 22-23.87 30.44-3.14 2.52-8.24 4.64-12.6 3.72-7.55-1.6-7.59-9.49-7.61-12.46v-.59c-.07-6-.06-12.05-.05-18.07v-23.14c0-3.74 0-7.47-.1-11.21a9.53 9.53 0 00-.28-2.26 8.82 8.82 0 00-2-.19c-9.18-.1-18.35-.09-27.53-.09h-11.64a8.94 8.94 0 00-1.62.23c-.15.08-.05.45.63 1.2 6.64 7.34 9.77 16.49 9.55 28-.13 7.15-.1 14.31-.07 21.46v11.93a25.18 25.18 0 01-.36 6.3c-.81 3.67-2.23 8.08-6.15 9.65-4.39 1.75-9.42-.39-11.7-1.94a40.58 40.58 0 01-8.38-8c-8.46-10.32-15.61-22.27-22.51-37.62-2.92-6.49-5.53-13.18-8-19.64l-2.49-6.36c-1.58-4-2.41-4.79-3.3-4.83-9.57-.38-19.72-.39-31 0a4.14 4.14 0 00-.5.05 4.6 4.6 0 000 1.07 56.6 56.6 0 002.23 10.77c6.43 20.88 16.72 41.28 33.38 66.16 11.11 16.59 22.1 28.22 34.59 36.59 16.83 11.22 33.35 16.02 50.55 14.68 6.75-.54 6.75-.54 6.77-7.22v-4.88c0-6.06 0-12.34.25-18.55.15-4.15 1.4-7.15 3.82-9.18a10.61 10.61 0 017.09-2.35zm-.38 11.28zm.93-.78zm-.2-39.79z"/><path class="cls-1" d="M200 400C89.72 400 0 310.28 0 200S89.72 0 200 0s200 89.72 200 200-89.72 200-200 200zm0-385C98 15 15 98 15 200s83 185 185 185 185-83 185-185S302 15 200 15z"/></svg>