<svg id="Layer_1" data-name="Layer 1" xmlns="http://www.w3.org/2000/svg" viewBox="0 0 400 400"><defs><style>.cls-1{fill:#636363}</style></defs><path class="cls-1" d="M200 400C89.72 400 0 310.28 0 200S89.72 0 200 0s200 89.72 200 200-89.72 200-200 200zm0-385C98 15 15 98 15 200s83 185 185 185 185-83 185-185S302 15 200 15z"/><path class="cls-1" d="M303.07 200.06c-.3 14.54-.47 29.08-.94 43.6-.4 12.34-3.13 24.09-10.13 34.43-9.83 14.39-24 21.72-40.95 23.5a283.08 283.08 0 01-29.41 1.31q-32.79 0-65.57-.62c-10.81-.2-21.25-2.53-30.72-8-15.35-8.77-24.14-22.28-26.5-39.56A254 254 0 0197 221.61c-.12-21.76.25-43.52.58-65.28a65.75 65.75 0 014.41-23.14c7.71-19.72 22.48-31 43-34.14 10.79-1.65 21.87-1.87 32.81-1.93 21.95-.11 43.91.19 65.86.59 10.81.2 21.25 2.53 30.72 8 15.31 8.8 24.13 22.34 26.44 39.59 1.53 11.4 1.52 23 2 34.55.26 6.74.05 13.48.05 20.23zm-13.83 0h-.49c0-4 .1-7.92 0-11.87-.37-13.07-.26-26.19-1.37-39.2-1.65-19.41-12.65-31.66-31.08-35.64a72.64 72.64 0 00-14.18-1.58c-23.53-.31-47.06-.58-70.59-.48a173.42 173.42 0 00-26.67 1.84c-16.89 2.73-27.71 12.67-31.52 29.58a65 65 0 00-1.7 12.94c-.38 19.47-.71 38.94-.66 58.42 0 12.36.32 24.75 1.3 37.07 1 13 6.48 23.84 18 30.78 7.5 4.5 15.9 6.26 24.48 6.31q45 .27 90.05 0c8.48-.05 16.79-1.78 24.22-6.16 11.74-6.91 17.41-17.86 18.29-30.94 1.18-17.03 1.34-34.08 1.92-51.13z"/><path class="cls-1" d="M146.88 199.81a52.95 52.95 0 1153 53.12 52.88 52.88 0 01-53-53.12zm53 40.32a40.13 40.13 0 10-40.18-39.9 40.17 40.17 0 0040.19 39.9zM256.53 133.5a10 10 0 11-9.88 10.08 9.85 9.85 0 019.88-10.08z"/></svg>