<svg id="Layer_1" data-name="Layer 1" xmlns="http://www.w3.org/2000/svg" viewBox="0 0 400 400"><defs><style>.cls-1{fill:#636363}</style></defs><path class="cls-1" d="M200 400C89.72 400 0 310.28 0 200S89.72 0 200 0s200 89.72 200 200-89.72 200-200 200zm0-385C98 15 15 98 15 200s83 185 185 185 185-83 185-185S302 15 200 15z"/><path class="cls-1" d="M289.58 114.23a4.76 4.76 0 00-.07-.84 2.05 2.05 0 00-.07-.34 5.2 5.2 0 00-.22-.77c0-.07 0-.13-.06-.2a.6.6 0 00-.06-.11 6.14 6.14 0 00-.46-.88l-.06-.1a5.72 5.72 0 00-.67-.82l-.26-.24a6.22 6.22 0 00-.56-.46l-.34-.22a2.53 2.53 0 00-.27-.18c-.1-.06-.22-.09-.33-.15l-.36-.16a6.28 6.28 0 00-.7-.22c-.11 0-.22-.07-.33-.09a5.15 5.15 0 00-1-.11 2.26 2.26 0 00-.26 0 4.43 4.43 0 00-.81.07l-.38.08a5 5 0 00-.73.21l-.21.06L73.42 193a6 6 0 00.15 11.19l53.84 20.14 18.9 59.77a6 6 0 004.08 4 5.82 5.82 0 001.65.23 6 6 0 003.91-1.45l25.21-21.64 62.84 40a6 6 0 009.13-3.91l36.34-185.84a5.89 5.89 0 00.11-1 1.94 1.94 0 000-.26zM155 271.76l-17-53.9a6 6 0 00-3.62-3.81l-42.15-15.76 164.33-66.52L147.9 235.1a6 6 0 00.91 9.42l21.77 13.89zm88 18.61l-81.31-51.85 112.39-106.85z"/></svg>