<svg id="Layer_1" data-name="Layer 1" xmlns="http://www.w3.org/2000/svg" viewBox="0 0 400 400"><defs><style>.cls-1{fill:#636363}</style></defs><path class="cls-1" d="M200 400C89.72 400 0 310.28 0 200S89.72 0 200 0s200 89.72 200 200-89.72 200-200 200zm0-385C98 15 15 98 15 200s83 185 185 185 185-83 185-185S302 15 200 15z"/><path class="cls-1" d="M169.32 293.93a124 124 0 01-25.9-2.63 118.31 118.31 0 01-30.23-10.51c-4.09-2.11-7.9-4.23-11.64-6.5a5.64 5.64 0 013.31-10.44c11.48.8 21.58-.1 30.86-2.76a79.69 79.69 0 0016.33-6.61c-16.09-5.63-26.59-18.8-30.08-30.89a5.63 5.63 0 012.84-6.57c-11.19-8.68-17.3-21.31-18.23-37.76a5.64 5.64 0 017.48-5.64 46.64 46.64 0 01-5.94-14.62 48.31 48.31 0 015.18-34.82 5.64 5.64 0 019.22-.93c20.94 24.59 46.31 38.38 77.41 42 0-.38-.05-.77-.07-1.15-.71-15 4.49-27.78 15.45-37.9 11.84-11 26.13-14.94 42.48-11.87a44.94 44.94 0 0123.17 12 82.47 82.47 0 0021-8.2 14.79 14.79 0 011.38-.69 6.92 6.92 0 012.78-.49 6 6 0 014.53 2.45 5.72 5.72 0 01.86 5 49.11 49.11 0 01-5.21 11c1.24-.46 2.43-.94 3.59-1.4a5.63 5.63 0 016.76 8.4 91 91 0 01-18.61 20.28 7.5 7.5 0 01-1.38.95c-.12 0-.27.42-.24 1.8a124.51 124.51 0 01-9.42 49.32 130.5 130.5 0 01-20 34 123.08 123.08 0 01-23.52 22.15 120.49 120.49 0 01-31.84 16.36 126.23 126.23 0 01-30.64 6.21q-6 .46-11.68.46zm-42.86-19.43a114.34 114.34 0 0019.29 5.78 119.6 119.6 0 0034.34 2 114.55 114.55 0 0027.9-5.66 109.31 109.31 0 0028.87-14.82 112.56 112.56 0 0021.37-20.13 119.89 119.89 0 0018.3-31.08c6.16-15.32 9-30 8.65-45-.05-2.3-.18-8.31 5.8-11.76l.09-.08q2.18-1.71 4.24-3.62a61.77 61.77 0 01-6.22.79 5.63 5.63 0 01-3.62-10.25 44.69 44.69 0 007.11-6 96.89 96.89 0 01-10.45 3 8.26 8.26 0 01-8.17-2.39 34 34 0 00-18.25-9.79c-12.65-2.38-23.68.67-32.76 9.07-8.52 7.87-12.39 17.39-11.84 29.1.07 1.55.25 3.09.44 4.71l.29 2.64a5.63 5.63 0 01-6 6.19c-33.88-2.35-62.76-15.79-86-40a36.28 36.28 0 00-.77 19.42c2 9.14 7.1 16.53 15.46 22.6a5.64 5.64 0 01-3.31 10.19 44.36 44.36 0 01-12.16-1.84c3.25 14.17 12.51 23.48 28.12 28.33a5.63 5.63 0 01-.69 10.92 69.75 69.75 0 01-9.87 1.24h-.47a37.65 37.65 0 0030.55 18A5.62 5.62 0 01170 256a86.77 86.77 0 01-31.13 16 88.48 88.48 0 01-12.41 2.5z"/></svg>